<svg width="64" height="64" viewBox="0 0 64 64" fill="none" xmlns="http://www.w3.org/2000/svg">
  <circle cx="32" cy="32" r="30" fill="#fdf2f8" stroke="#ec4899" stroke-width="2"/>
  <!-- Skin layers cross-section -->
  <path d="M16 28c4-2 8-2 12 0s8 2 12 0v16c0 2-2 4-4 4H20c-2 0-4-2-4-4V28z" fill="#ec4899" opacity="0.3"/>
  <path d="M16 32c4-1 8-1 12 0s8 1 12 0v8c0 1-1 2-2 2H18c-1 0-2-1-2-2v-8z" fill="#ec4899" opacity="0.5"/>
  <path d="M16 36c4-1 8-1 12 0s8 1 12 0v4c0 1-1 2-2 2H18c-1 0-2-1-2-2v-4z" fill="#ec4899"/>
  <!-- Magnifying glass -->
  <circle cx="38" cy="22" r="6" fill="none" stroke="#ec4899" stroke-width="2"/>
  <circle cx="38" cy="22" r="3" fill="none" stroke="#ec4899" stroke-width="1"/>
  <path d="m42 26 4 4" stroke="#ec4899" stroke-width="2" stroke-linecap="round"/>
  <!-- Skin cells/spots -->
  <circle cx="28" cy="34" r="1" fill="#ec4899"/>
  <circle cx="36" cy="38" r="1" fill="#ec4899"/>
  <circle cx="24" cy="40" r="1" fill="#ec4899"/>
</svg>