<svg width="64" height="64" viewBox="0 0 64 64" fill="none" xmlns="http://www.w3.org/2000/svg">
  <circle cx="32" cy="32" r="30" fill="#dbeafe" stroke="#3b82f6" stroke-width="2"/>
  <!-- Thyroid gland -->
  <ellipse cx="32" cy="20" rx="8" ry="4" fill="#3b82f6"/>
  <rect x="28" y="20" width="8" height="6" fill="#3b82f6"/>
  <!-- Pancreas -->
  <ellipse cx="28" cy="35" rx="10" ry="3" fill="#3b82f6" opacity="0.7"/>
  <!-- Adrenal glands -->
  <ellipse cx="24" cy="28" rx="4" ry="2" fill="#3b82f6" opacity="0.6"/>
  <ellipse cx="40" cy="28" rx="4" ry="2" fill="#3b82f6" opacity="0.6"/>
  <!-- Insulin molecule symbol -->
  <circle cx="38" cy="42" r="3" fill="#3b82f6" opacity="0.5"/>
  <circle cx="44" cy="40" r="2" fill="#3b82f6" opacity="0.7"/>
  <circle cx="36" cy="48" r="2" fill="#3b82f6" opacity="0.7"/>
  <path d="M38 42l6-2M38 42l-2 6" stroke="#3b82f6" stroke-width="1"/>
  <!-- Hormone symbols -->
  <path d="M20 42c2-1 4-1 6 0 2-1 4-1 6 0" stroke="#3b82f6" stroke-width="2" fill="none"/>
  <circle cx="23" cy="44" r="1" fill="#3b82f6"/>
  <circle cx="29" cy="44" r="1" fill="#3b82f6"/>
</svg>