<svg width="64" height="64" viewBox="0 0 64 64" fill="none" xmlns="http://www.w3.org/2000/svg">
  <circle cx="32" cy="32" r="30" fill="#dcfce7" stroke="#22c55e" stroke-width="2"/>
  <!-- Stomach -->
  <path d="M25 20c3-2 6-2 9 0 3 2 5 5 5 8v4c0 3-2 6-5 8-3 2-6 2-9 0-3-2-5-5-5-8v-4c0-3 2-6 5-8z" fill="#22c55e" opacity="0.7"/>
  <!-- Small intestine coils -->
  <circle cx="40" cy="35" r="4" fill="none" stroke="#22c55e" stroke-width="2"/>
  <circle cx="44" cy="42" r="3" fill="none" stroke="#22c55e" stroke-width="2"/>
  <circle cx="38" cy="46" r="3" fill="none" stroke="#22c55e" stroke-width="2"/>
  <!-- Large intestine outline -->
  <path d="M20 42c0-4 2-6 4-6h8c2 0 4 2 4 6v6c0 2-1 3-2 3H22c-1 0-2-1-2-3v-6z" fill="#22c55e" opacity="0.4"/>
  <!-- Liver -->
  <path d="M18 22c2-1 4-1 6 0 2 1 4 2 4 4v2c0 1-1 2-2 2h-6c-1 0-2-1-2-2v-2c0-2 2-3 4-4h-4z" fill="#22c55e"/>
  <!-- Endoscope -->
  <path d="M40 18c2 0 4 2 4 4v8" stroke="#22c55e" stroke-width="2" fill="none"/>
  <circle cx="42" cy="18" r="2" fill="#22c55e"/>
</svg>