<svg width="64" height="64" viewBox="0 0 64 64" fill="none" xmlns="http://www.w3.org/2000/svg">
  <circle cx="32" cy="32" r="30" fill="#f9fafb" stroke="#6b7280" stroke-width="2"/>
  <!-- Stethoscope chest piece -->
  <circle cx="32" cy="38" r="6" fill="#6b7280"/>
  <circle cx="32" cy="38" r="4" fill="white"/>
  <circle cx="32" cy="38" r="2" fill="#6b7280"/>
  <!-- Stethoscope tubing -->
  <path d="M32 32c-6 0-12-6-12-12" stroke="#6b7280" stroke-width="3" fill="none"/>
  <path d="M32 32c6 0 12-6 12-12" stroke="#6b7280" stroke-width="3" fill="none"/>
  <!-- Earpieces -->
  <circle cx="20" cy="20" r="3" fill="#6b7280"/>
  <circle cx="44" cy="20" r="3" fill="#6b7280"/>
  <!-- Medical cross -->
  <rect x="30" y="18" width="4" height="12" fill="#6b7280"/>
  <rect x="26" y="22" width="12" height="4" fill="#6b7280"/>
  <!-- Prescription pad -->
  <rect x="16" y="44" width="8" height="6" rx="1" fill="#6b7280" opacity="0.7"/>
  <path d="M18 46h4M18 48h3" stroke="white" stroke-width="1"/>
  <!-- Thermometer -->
  <rect x="42" y="42" width="2" height="8" fill="#6b7280"/>
  <circle cx="43" cy="52" r="2" fill="#dc2626"/>
  <!-- Medical clipboard -->
  <rect x="48" y="28" width="6" height="8" rx="1" fill="#6b7280" opacity="0.5"/>
  <path d="M50 30h2M50 32h2M50 34h1" stroke="white" stroke-width="0.5"/>
</svg>