<svg width="64" height="64" viewBox="0 0 64 64" fill="none" xmlns="http://www.w3.org/2000/svg">
  <circle cx="32" cy="32" r="30" fill="#faf5ff" stroke="#a855f7" stroke-width="2"/>
  <!-- Uterus -->
  <path d="M32 42c-4 0-8-3-8-8v-6c0-2 2-4 4-4h8c2 0 4 2 4 4v6c0 5-4 8-8 8z" fill="#a855f7"/>
  <!-- Fallopian tubes -->
  <path d="M24 28c-2-1-4-1-4 1s2 2 4 1" stroke="#a855f7" stroke-width="2" fill="none"/>
  <path d="M40 28c2-1 4-1 4 1s-2 2-4 1" stroke="#a855f7" stroke-width="2" fill="none"/>
  <!-- Ovaries -->
  <ellipse cx="20" cy="30" rx="3" ry="4" fill="#a855f7" opacity="0.7"/>
  <ellipse cx="44" cy="30" rx="3" ry="4" fill="#a855f7" opacity="0.7"/>
  <!-- Cervix -->
  <rect x="30" y="42" width="4" height="6" rx="2" fill="#a855f7"/>
  <!-- Speculum (medical instrument) -->
  <path d="M32 52c-2-1-4-3-4-5s2-4 4-5 4 3 4 5-2 4-4 5z" fill="#a855f7" opacity="0.5"/>
  <!-- Female symbol -->
  <circle cx="46" cy="18" r="4" fill="none" stroke="#a855f7" stroke-width="2"/>
  <path d="M46 22v4M44 24h4" stroke="#a855f7" stroke-width="2"/>
</svg>