<svg width="64" height="64" viewBox="0 0 64 64" fill="none" xmlns="http://www.w3.org/2000/svg">
  <circle cx="32" cy="32" r="30" fill="#fff1f2" stroke="#f43f5e" stroke-width="2"/>
  <!-- Medicine bottles with dilutions -->
  <rect x="24" y="20" width="6" height="10" rx="1" fill="#f43f5e"/>
  <rect x="34" y="20" width="6" height="10" rx="1" fill="#f43f5e" opacity="0.7"/>
  <rect x="29" y="32" width="6" height="10" rx="1" fill="#f43f5e" opacity="0.4"/>
  <!-- Bottle caps -->
  <rect x="24" y="18" width="6" height="2" rx="1" fill="#f43f5e"/>
  <rect x="34" y="18" width="6" height="2" rx="1" fill="#f43f5e"/>
  <rect x="29" y="30" width="6" height="2" rx="1" fill="#f43f5e"/>
  <!-- Dilution process arrows -->
  <path d="M30 25l4 0" stroke="white" stroke-width="1" marker-end="url(#arrowhead)"/>
  <path d="M35 30l-3 2" stroke="white" stroke-width="1" marker-end="url(#arrowhead)"/>
  <!-- Water drops (succussion) -->
  <circle cx="20" cy="24" r="1" fill="#f43f5e" opacity="0.6"/>
  <circle cx="44" cy="28" r="1" fill="#f43f5e" opacity="0.6"/>
  <circle cx="18" cy="36" r="1" fill="#f43f5e" opacity="0.6"/>
  <circle cx="46" cy="36" r="1" fill="#f43f5e" opacity="0.6"/>
  <!-- Natural source (flower) -->
  <circle cx="32" cy="48" r="4" fill="#f43f5e" opacity="0.3"/>
  <circle cx="30" cy="46" r="2" fill="#f43f5e" opacity="0.5"/>
  <circle cx="34" cy="46" r="2" fill="#f43f5e" opacity="0.5"/>
  <circle cx="30" cy="50" r="2" fill="#f43f5e" opacity="0.5"/>
  <circle cx="34" cy="50" r="2" fill="#f43f5e" opacity="0.5"/>
  <!-- Potency numbers -->
  <text x="26" y="26" font-size="4" fill="white" text-anchor="middle">6X</text>
  <text x="36" y="26" font-size="4" fill="white" text-anchor="middle">30C</text>
  <text x="31" y="38" font-size="4" fill="white" text-anchor="middle">200</text>
</svg>