<svg width="64" height="64" viewBox="0 0 64 64" fill="none" xmlns="http://www.w3.org/2000/svg">
  <circle cx="32" cy="32" r="30" fill="#fff7ed" stroke="#ea580c" stroke-width="2"/>
  <!-- Cancer cell with irregular shape -->
  <path d="M32 42c-3-1-6-3-6-8 0-3 1-6 3-8 2-2 5-2 8-1 3 1 5 4 5 8 0 5-3 7-6 8-1 1-3 1-4 1z" fill="#ea580c"/>
  <!-- Cell nucleus -->
  <ellipse cx="33" cy="33" rx="3" ry="4" fill="white" opacity="0.8"/>
  <!-- Radiation beams -->
  <path d="M20 20l6 6M44 20l-6 6M20 44l6-6M44 44l-6-6" stroke="#ea580c" stroke-width="2"/>
  <path d="M14 32h8M42 32h8M32 14v8M32 42v8" stroke="#ea580c" stroke-width="2"/>
  <!-- Chemotherapy IV bag -->
  <rect x="18" y="16" width="6" height="8" rx="1" fill="#ea580c" opacity="0.7"/>
  <path d="M21 16v-2" stroke="#ea580c" stroke-width="2"/>
  <path d="M21 24c0 2 0 4 2 6" stroke="#ea580c" stroke-width="2" fill="none"/>
  <!-- Target crosshairs -->
  <circle cx="32" cy="32" r="12" fill="none" stroke="#ea580c" stroke-width="1" opacity="0.5"/>
  <path d="M28 32h8M32 28v8" stroke="#ea580c" stroke-width="1" opacity="0.5"/>
</svg>