<svg width="64" height="64" viewBox="0 0 64 64" fill="none" xmlns="http://www.w3.org/2000/svg">
  <circle cx="32" cy="32" r="30" fill="#fefce8" stroke="#eab308" stroke-width="2"/>
  <!-- Bone structure -->
  <rect x="28" y="18" width="8" height="28" rx="4" fill="#eab308"/>
  <!-- Bone ends (epiphysis) -->
  <ellipse cx="32" cy="18" rx="6" ry="3" fill="#eab308"/>
  <ellipse cx="32" cy="46" rx="6" ry="3" fill="#eab308"/>
  <!-- Bone marrow -->
  <rect x="30" y="22" width="4" height="20" rx="2" fill="white" opacity="0.8"/>
  <!-- Joint/knee -->
  <ellipse cx="32" cy="32" rx="8" ry="4" fill="#eab308" opacity="0.6"/>
  <!-- Ligaments -->
  <path d="M24 30c2 0 4 2 4 4s-2 4-4 4" stroke="#eab308" stroke-width="2" fill="none"/>
  <path d="M40 30c-2 0-4 2-4 4s2 4 4 4" stroke="#eab308" stroke-width="2" fill="none"/>
  <!-- X-ray film corner -->
  <rect x="42" y="16" width="8" height="10" rx="1" fill="#eab308" opacity="0.3"/>
  <rect x="44" y="18" width="4" height="6" rx="2" fill="white"/>
  <!-- Fracture line -->
  <path d="M26 32l12 0" stroke="white" stroke-width="2" stroke-dasharray="2,2" opacity="0.7"/>
</svg>