<svg width="64" height="64" viewBox="0 0 64 64" fill="none" xmlns="http://www.w3.org/2000/svg">
  <circle cx="32" cy="32" r="30" fill="#fafaf9" stroke="#78716c" stroke-width="2"/>
  <!-- Human figure in movement -->
  <circle cx="28" cy="20" r="4" fill="#78716c"/>
  <!-- Body -->
  <rect x="26" y="24" width="4" height="12" rx="2" fill="#78716c"/>
  <!-- Arms in movement -->
  <path d="M26 28l-6-4" stroke="#78716c" stroke-width="3" stroke-linecap="round"/>
  <path d="M30 28l6 4" stroke="#78716c" stroke-width="3" stroke-linecap="round"/>
  <!-- Legs -->
  <path d="M26 36l-4 8" stroke="#78716c" stroke-width="3" stroke-linecap="round"/>
  <path d="M30 36l4 8" stroke="#78716c" stroke-width="3" stroke-linecap="round"/>
  <!-- Exercise/resistance band -->
  <path d="M40 20c4 0 6 4 6 8s-2 8-6 8" stroke="#78716c" stroke-width="2" fill="none"/>
  <path d="M40 24c2 0 3 2 3 4s-1 4-3 4" stroke="#78716c" stroke-width="2" fill="none"/>
  <!-- Physical therapy tools -->
  <!-- Exercise ball -->
  <circle cx="46" cy="42" r="6" fill="#78716c" opacity="0.4"/>
  <path d="M42 38c2 2 6 2 8 4M42 46c2-2 6-2 8-4" stroke="#78716c" stroke-width="1" opacity="0.6"/>
  <!-- Massage/therapy hands -->
  <path d="M18 36c-2 0-4 2-4 4v4c0 2 2 4 4 4" stroke="#78716c" stroke-width="2" fill="none"/>
  <circle cx="16" cy="38" r="1" fill="#78716c"/>
  <circle cx="16" cy="42" r="1" fill="#78716c"/>
  <circle cx="16" cy="46" r="1" fill="#78716c"/>
  <!-- Movement arrows -->
  <path d="M28 14l2 2 2-2" stroke="#78716c" stroke-width="2" fill="none"/>
  <path d="M32 48l2 2 2-2" stroke="#78716c" stroke-width="2" fill="none"/>
  <!-- Balance/stability indicator -->
  <path d="M18 48c4-2 8-2 12 0" stroke="#78716c" stroke-width="2" fill="none"/>
</svg>