<svg width="64" height="64" viewBox="0 0 64 64" fill="none" xmlns="http://www.w3.org/2000/svg">
  <circle cx="32" cy="32" r="30" fill="#ecfdf5" stroke="#10b981" stroke-width="2"/>
  <!-- Brain outline -->
  <path d="M20 22c0-4 4-8 12-8s12 4 12 8c0 2-1 4-2 6v6c0 4-4 8-10 8s-10-4-10-8v-6c-1-2-2-4-2-6z" fill="#10b981"/>
  <!-- Brain hemispheres -->
  <path d="M32 14v24" stroke="white" stroke-width="1.5"/>
  <!-- Brain regions -->
  <circle cx="28" cy="20" r="2" fill="white" opacity="0.8"/>
  <circle cx="36" cy="20" r="2" fill="white" opacity="0.8"/>
  <circle cx="26" cy="26" r="1.5" fill="white" opacity="0.6"/>
  <circle cx="38" cy="26" r="1.5" fill="white" opacity="0.6"/>
  <!-- Mental health symbols -->
  <path d="M20 42c2-2 4-2 6 0 2-2 4-2 6 0 2-2 4-2 6 0 2-2 4-2 6 0" stroke="#10b981" stroke-width="2" fill="none"/>
  <!-- Thought bubble -->
  <circle cx="46" cy="18" r="3" fill="#10b981" opacity="0.5"/>
  <circle cx="44" cy="22" r="2" fill="#10b981" opacity="0.7"/>
  <circle cx="42" cy="24" r="1" fill="#10b981"/>
  <!-- Neurotransmitter symbols -->
  <circle cx="18" cy="36" r="1.5" fill="#10b981"/>
  <circle cx="46" cy="36" r="1.5" fill="#10b981"/>
  <path d="M18 36c2 2 4 2 6 0M46 36c-2 2-4 2-6 0" stroke="#10b981" stroke-width="1" opacity="0.7"/>
</svg>