<svg width="64" height="64" viewBox="0 0 64 64" fill="none" xmlns="http://www.w3.org/2000/svg">
  <circle cx="32" cy="32" r="30" fill="#f0f9ff" stroke="#0ea5e9" stroke-width="2"/>
  <!-- Trachea -->
  <rect x="30" y="16" width="4" height="8" fill="#0ea5e9"/>
  <!-- Left lung -->
  <path d="M20 24c0-2 2-4 4-4 6 0 8 2 8 6v12c0 4-2 6-8 6-2 0-4-2-4-4V24z" fill="#0ea5e9"/>
  <!-- Right lung -->
  <path d="M44 24c0-2-2-4-4-4-6 0-8 2-8 6v12c0 4 2 6 8 6 2 0 4-2 4-4V24z" fill="#0ea5e9"/>
  <!-- Bronchi -->
  <path d="M32 24c-4 0-6 2-8 4M32 24c4 0 6 2 8 4" stroke="white" stroke-width="2"/>
  <!-- Alveoli (air sacs) -->
  <circle cx="22" cy="30" r="2" fill="white" opacity="0.8"/>
  <circle cx="26" cy="34" r="2" fill="white" opacity="0.8"/>
  <circle cx="22" cy="38" r="2" fill="white" opacity="0.8"/>
  <circle cx="42" cy="30" r="2" fill="white" opacity="0.8"/>
  <circle cx="38" cy="34" r="2" fill="white" opacity="0.8"/>
  <circle cx="42" cy="38" r="2" fill="white" opacity="0.8"/>
  <!-- Diaphragm -->
  <path d="M20 44c4-2 8-2 12 0s8 2 12 0" stroke="#0ea5e9" stroke-width="2" fill="none"/>
  <!-- Oxygen molecules -->
  <circle cx="18" cy="20" r="1" fill="#0ea5e9" opacity="0.6"/>
  <circle cx="46" cy="20" r="1" fill="#0ea5e9" opacity="0.6"/>
  <text x="16" y="18" font-size="6" fill="#0ea5e9">O₂</text>
</svg>